<?xml version="1.0" encoding="UTF-8" standalone="no"?>
<!-- Creator: CorelDRAW X6 -->

<svg
   xmlns:dc="http://purl.org/dc/elements/1.1/"
   xmlns:cc="http://creativecommons.org/ns#"
   xmlns:rdf="http://www.w3.org/1999/02/22-rdf-syntax-ns#"
   xmlns:svg="http://www.w3.org/2000/svg"
   xmlns="http://www.w3.org/2000/svg"
   xmlns:sodipodi="http://sodipodi.sourceforge.net/DTD/sodipodi-0.dtd"
   xmlns:inkscape="http://www.inkscape.org/namespaces/inkscape"
   xml:space="preserve"
   width="960mm"
   height="610mm"
   version="1.1"
   style="shape-rendering:geometricPrecision; text-rendering:geometricPrecision; image-rendering:optimizeQuality; fill-rule:evenodd; clip-rule:evenodd"
   viewBox="0 0 96000 61000"
   id="svg2"
   inkscape:version="0.48.4 r9939"
   sodipodi:docname="F:\KMQ\DieCutV3.svg"><metadata
   id="metadata78"><rdf:RDF><cc:Work
       rdf:about=""><dc:format>image/svg+xml</dc:format><dc:type
         rdf:resource="http://purl.org/dc/dcmitype/StillImage" /><dc:title></dc:title></cc:Work></rdf:RDF></metadata><sodipodi:namedview
   pagecolor="#ffffff"
   bordercolor="#666666"
   borderopacity="1"
   objecttolerance="10"
   gridtolerance="10"
   guidetolerance="10"
   inkscape:pageopacity="0"
   inkscape:pageshadow="2"
   inkscape:window-width="1440"
   inkscape:window-height="850"
   id="namedview76"
   showgrid="false"
   inkscape:zoom="0.27252084"
   inkscape:cx="1700.7874"
   inkscape:cy="1080.7086"
   inkscape:window-x="-8"
   inkscape:window-y="-8"
   inkscape:window-maximized="1"
   inkscape:current-layer="svg2" />
 <defs
   id="defs4">
  <style
   type="text/css"
   id="style6">
   
    .str1 {stroke:red;stroke-width:7.62}
    .str2 {stroke:lime;stroke-width:7.62}
    .str0 {stroke:red;stroke-width:7.62}
    .fil1 {fill:none}
    .fil0 {fill:none;fill-rule:nonzero}
   
  </style>
 
  
  
  
  
  
  
  
  
  
  
  
  
  
  
  
  
  
  
  
  
  
  
  
  
  
 
   
   
   
   
   
   
   
   
  </defs>
 <path
   style="fill:none;stroke:#ff0000;stroke-width:7.61999989"
   inkscape:connector-curvature="0"
   id="path10"
   d="m 8124,53822.868 4127,229.132 18627,847 4128,141 6756,-18 6756,-18 4163,-141 18556,-721.912 4122.51,-396.994 c 1771.943,-229.472 3543.886,-458.943 5315.829,-688.415 1117.499,14.638 691.454,-669.764 583.394,-1578.486 C 79498.631,36675.787 77738.528,21874.38 75978.426,7072.9739 c -144.999,-1056.4324 163.438,-1519.0945 -933.33,-1393.2335 -1767.082,202.7835 -3534.163,405.567 -5301.244,608.3505 l -8059.72,457.6475 c -137.216,84.501 -94.927,508.1641 -302.21,527.2485 -207.282,19.0844 -207.815,-507.8358 -415.097,-488.7514 -207.282,19.0844 -94.927,508.1641 -302.21,527.2486 -207.282,19.0846 -56.444,-508 -415.098,-488.7514 -358.654,19.2486 -1265.283,42.8156 -1982.591,81.3128 L 46790,7520 36682,7519 c -4430.51,-230.8639 -8861.021,-461.73 -13291.531,-692.5937 -187.01,-9.7447 -167.348,441.93 -359.23,431.9315 -191.882,-9.9985 -161.007,-471.9022 -359.231,-469.369 -198.224,2.5332 -154.991,458.1137 -359.231,447.4712 -204.24,-10.6425 -150.908,-462.038 -359.23,-484.9087 L 13691.244,6321 c -1769.407,-266.8408 -3538.815,-533.6816 -5308.2224,-800.5224 -466.4518,-90.1087 -790.1761,92.7321 -871.8471,623.0235 C 5104.6455,21774.1 2647.6598,37732.419 585.86864,51123.919 385.72873,52334.924 351.49986,52522.944 1329.4583,52751.71 3594.3055,53108.762 5859.1528,53465.815 8124,53822.868 z"
   class="fil0 str0"
   sodipodi:nodetypes="ccccccccccccccczzzzcccczzzscccccc" /><path
   style="fill:none;stroke:#ff0000;stroke-width:7.61999989"
   inkscape:connector-curvature="0"
   id="path12"
   d="m 8512.7777,51941 3640.2213,168 -4,225 c -11,588 -1329.111,516 -1864.111,490 -1630.9992,-92 -1793.1103,-92 -1782.1103,-653 l 10,-231 z"
   class="fil1 str1"
   sodipodi:nodetypes="ccccccc" /><path
   style="fill:none;stroke:#ff0000;stroke-width:7.61999989"
   inkscape:connector-curvature="0"
   id="path14"
   d="m 40097,52999 3034.333,0 c 88,0 159,71 159,159 l 0,310 c 0,88 -71,159 -159,159 l -3034.333,0 c -88,0 -159,-71 -159,-159 l 0,-310 c 0,-88 71,-159 159,-159 z"
   class="fil1 str0"
   sodipodi:nodetypes="sssssssss" /><path
   style="fill:none;stroke:#ff0000;stroke-width:7.61999989"
   inkscape:connector-curvature="0"
   id="path20"
   d="m 69175,37922 c 98,3112 196,6224 295,9336 131,4698 203,4702 -1846,4731 -3990,57 -7974,394 -11963,378 -1980,-8 -2029,62 -2141,-4605 -98,-3112 -197,-6224 -295,-9336"
   class="fil1 str0" /><path
   style="fill:none;stroke:#ff0000;stroke-width:7.61999989"
   inkscape:connector-curvature="0"
   id="path22"
   d="m 30379,38979 c -171,3109 -342,6218 -513,9327 -276,4692 -204,4702 -2248,4554 -3979,-288 -7977,-297 -11951,-658 -1972,-179 -2027,-114 -1735,-4773 l 513,-9327"
   class="fil1 str0" /><path
   style="fill:none;stroke:#ff0000;stroke-width:7.61999989"
   inkscape:connector-curvature="0"
   id="path24"
   d="m 31256.889,53012 3643.222,7 7,225 c 16,587 -1304.111,582 -1839.111,581 -452,6 -1858.111,-34 -1822.111,-589 l 11,-225 z"
   class="fil1 str1"
   sodipodi:nodetypes="ccccccc" /><path
   style="fill:none;stroke:#ff0000;stroke-width:7.61999989"
   inkscape:connector-curvature="0"
   id="path26"
   d="m 48635.889,53010 3643.222,-11 8,225 c 19,587 -1301.111,589 -1836.111,591 -452,8 -1858.111,-25 -1825.111,-579 l 9,-225 z"
   class="fil1 str1"
   sodipodi:nodetypes="ccccccc" /><path
   style="fill:none;stroke:#ff0000;stroke-width:7.61999989"
   inkscape:connector-curvature="0"
   id="path30"
   d="m 23933.592,7089.16 2527,116 -10,220 -2527,-115 10,-220 z m 0,0 z"
   class="fil1 str0" /><path
   style="fill:none;stroke:#ff0000;stroke-width:7.61999989"
   inkscape:connector-curvature="0"
   id="path32"
   d="m 57134.24,7178 2527,-115 10,220 -2527,115 -10,-220 z m 0,0 z"
   class="fil1 str0" /><path
   style="fill:none;stroke:#ff0000;stroke-width:7.61999989"
   inkscape:connector-curvature="0"
   id="path34"
   d="m 45828,44696 0,6997 c 0,521 -357,940 -800,940 l -6538,0 c -443,0 -800,-419 -800,-940 l 0,-6997"
   class="fil1 str0" /><path
   style="fill:none;stroke:#ff0000;stroke-width:7.61999989"
   inkscape:connector-curvature="0"
   id="path52"
   d="m 45397,13615 c 279,24 592,150 580,745 l 0,1500 c 84,919 -1057,750 -1057,750 l -6339,0 c 0,0 -1057,136 -1057,-750 l 0,-1500 c 14,-638 297,-746 571,-756"
   class="fil1 str0" /><polyline
   class="fil1 str2"
   points="8117,54008 8117,54033 10811,6313 12283,54058 "
   id="polyline62"
   style="fill:none;stroke:#00ff00;stroke-width:7.61999989"
   inkscape:transform-center-x="48.764344"
   inkscape:transform-center-y="-846.05118"
   transform="matrix(0.99817794,0.06033907,-0.06033907,0.99817794,3284.4265,-642.87072)" /><line
   class="fil1 str2"
   x1="38096"
   y1="13603"
   x2="45397"
   y2="13603"
   id="line74"
   style="fill:none;stroke:#00ff00;stroke-width:7.61999989" />
<polyline
   class="fil1 str2"
   points="75369,54058 75394,54083 72700,6313 71253,54233 71253,54233 "
   id="polyline60"
   style="fill:none;stroke:#00ff00;stroke-width:7.61999989"
   transform="matrix(0.99813697,-0.06101293,0.06101293,0.99813697,-3187.9957,4343.6558)"
   inkscape:transform-center-x="-25.225149"
   inkscape:transform-center-y="-848.15984" /><path
   class="fil1 str1"
   d="m 74975.725,51603.705 -3623.179,389.787 17.721,224.337 c 46.855,586.233 1358.107,433.946 1890.523,375.353 1622.347,-191.341 1784.156,-201.233 1738.949,-760.516 l -24.075,-229.959 z"
   id="path3088"
   inkscape:connector-curvature="0"
   style="fill:none;stroke:#ff0000;stroke-width:7.61999989"
   sodipodi:nodetypes="ccccccc"
   inkscape:transform-center-x="-66.759962"
   inkscape:transform-center-y="-73.112189" /><path
   sodipodi:type="arc"
   style="fill:none;stroke:#ff0000;stroke-width:0.35433072;stroke-miterlimit:4;stroke-opacity:1;stroke-dasharray:none"
   id="path3061"
   sodipodi:cx="71.433731"
   sodipodi:cy="1757.9468"
   sodipodi:rx="11.66034"
   sodipodi:ry="35.320641"
   d="m 83.094071,1757.9468 a 11.66034,35.320641 0 1 1 -23.32068,0 11.66034,35.320641 0 1 1 23.32068,0 z"
   transform="matrix(27.878816,4.3892454,-4.3892454,27.878816,8103.3982,527.12963)" /><path
   transform="matrix(27.878816,4.3892454,-4.3892454,27.878816,14469.562,-40681.933)"
   d="m 83.094071,1757.9468 a 11.66034,35.320641 0 1 1 -23.32068,0 11.66034,35.320641 0 1 1 23.32068,0 z"
   sodipodi:ry="35.320641"
   sodipodi:rx="11.66034"
   sodipodi:cy="1757.9468"
   sodipodi:cx="71.433731"
   id="path3073"
   style="fill:none;stroke:#ff0000;stroke-width:0.35433072;stroke-miterlimit:4;stroke-opacity:1;stroke-dasharray:none"
   sodipodi:type="arc" /><g
   id="g3085"><path
     transform="matrix(-30.877987,4.8614353,4.8614353,30.877987,67092.409,-45865.494)"
     d="m 83.094071,1757.9468 a 11.66034,35.320641 0 1 1 -23.32068,0 11.66034,35.320641 0 1 1 23.32068,0 z"
     sodipodi:ry="35.320641"
     sodipodi:rx="11.66034"
     sodipodi:cy="1757.9468"
     sodipodi:cx="71.433731"
     id="path3075"
     style="fill:none;stroke:#ff0000;stroke-width:0.35433072;stroke-miterlimit:4;stroke-opacity:1;stroke-dasharray:none"
     sodipodi:type="arc" /><path
     sodipodi:type="arc"
     style="fill:none;stroke:#ff0000;stroke-width:0.35433072;stroke-miterlimit:4;stroke-opacity:1;stroke-dasharray:none"
     id="path3077"
     sodipodi:cx="71.433731"
     sodipodi:cy="1757.9468"
     sodipodi:rx="11.66034"
     sodipodi:ry="35.320641"
     d="m 83.094071,1757.9468 a 11.66034,35.320641 0 1 1 -23.32068,0 11.66034,35.320641 0 1 1 23.32068,0 z"
     transform="matrix(-30.877987,4.8614353,4.8614353,30.877987,65137.78,-45554.53)" /></g><g
   id="g3089"
   transform="translate(6498.8268,41612.593)"><path
     sodipodi:type="arc"
     style="fill:none;stroke:#ff0000;stroke-width:0.35433072;stroke-miterlimit:4;stroke-opacity:1;stroke-dasharray:none"
     id="path3091"
     sodipodi:cx="71.433731"
     sodipodi:cy="1757.9468"
     sodipodi:rx="11.66034"
     sodipodi:ry="35.320641"
     d="m 83.094071,1757.9468 c 0,19.507 -5.220512,35.3206 -11.66034,35.3206 -6.439828,0 -11.66034,-15.8136 -11.66034,-35.3206 0,-19.5071 5.220512,-35.3207 11.66034,-35.3207 6.439828,0 11.66034,15.8136 11.66034,35.3207 z"
     transform="matrix(-30.877987,4.8614353,4.8614353,30.877987,67092.409,-45865.494)" /><path
     transform="matrix(-30.877987,4.8614353,4.8614353,30.877987,65137.78,-45554.53)"
     d="m 83.094071,1757.9468 c 0,19.507 -5.220512,35.3206 -11.66034,35.3206 -6.439828,0 -11.66034,-15.8136 -11.66034,-35.3206 0,-19.5071 5.220512,-35.3207 11.66034,-35.3207 6.439828,0 11.66034,15.8136 11.66034,35.3207 z"
     sodipodi:ry="35.320641"
     sodipodi:rx="11.66034"
     sodipodi:cy="1757.9468"
     sodipodi:cx="71.433731"
     id="path3093"
     style="fill:none;stroke:#ff0000;stroke-width:0.35433072;stroke-miterlimit:4;stroke-opacity:1;stroke-dasharray:none"
     sodipodi:type="arc" /></g><path
   sodipodi:type="arc"
   style="fill:none;stroke:#ff0000;stroke-width:0.35433072;stroke-miterlimit:4;stroke-opacity:1;stroke-dasharray:none"
   id="path3095"
   sodipodi:cx="775.82074"
   sodipodi:cy="284.6358"
   sodipodi:rx="9.9111242"
   sodipodi:ry="10.186433"
   d="m 785.73186,284.6358 a 9.9111242,10.186433 0 1 1 -19.82224,0 9.9111242,10.186433 0 1 1 19.82224,0 z"
   transform="matrix(28.222223,0,0,28.222223,761.44297,-62.158656)" /><path
   transform="matrix(-28.222223,0,0,28.222223,82945.688,-175.04755)"
   d="m 785.73186,284.6358 a 9.9111242,10.186433 0 1 1 -19.82224,0 9.9111242,10.186433 0 1 1 19.82224,0 z"
   sodipodi:ry="10.186433"
   sodipodi:rx="9.9111242"
   sodipodi:cy="284.6358"
   sodipodi:cx="775.82074"
   id="path3099"
   style="fill:none;stroke:#ff0000;stroke-width:0.35433072;stroke-miterlimit:4;stroke-opacity:1;stroke-dasharray:none"
   sodipodi:type="arc" /><path
   style="fill:none;stroke:#00ff00;stroke-width:10.00000095;stroke-linecap:butt;stroke-linejoin:miter;stroke-miterlimit:4;stroke-opacity:1;stroke-dasharray:none"
   d="m 46722.205,7528.672 1822.939,47466.239"
   id="path3869"
   inkscape:connector-curvature="0"
   sodipodi:nodetypes="cc" /><path
   style="fill:none;stroke:#00ff00;stroke-width:0.35433072;stroke-linecap:butt;stroke-linejoin:miter;stroke-miterlimit:4;stroke-opacity:1;stroke-dasharray:none"
   d="M 1659.2044,266.50254 1867.1689,1943.8518"
   id="path3871"
   inkscape:connector-curvature="0"
   transform="matrix(28.222223,0,0,28.222223,-5.6476977e-4,0)"
   sodipodi:nodetypes="cc" /><path
   sodipodi:nodetypes="cc"
   inkscape:connector-curvature="0"
   id="path3873"
   d="M 36834.893,7528.672 35011.954,54994.911"
   style="fill:none;stroke:#00ff00;stroke-width:10.00000095;stroke-linecap:butt;stroke-linejoin:miter;stroke-miterlimit:4;stroke-opacity:1;stroke-dasharray:none" /><path
   sodipodi:nodetypes="cc"
   inkscape:connector-curvature="0"
   id="path3875"
   d="M 36730.661,7521.2941 30861.441,54859.819"
   style="fill:none;stroke:#00ff00;stroke-width:10.00000095;stroke-linecap:butt;stroke-linejoin:miter;stroke-miterlimit:4;stroke-opacity:1;stroke-dasharray:none" /></svg>