<?xml version="1.0" encoding="UTF-8" standalone="no"?>
<!-- Creator: CorelDRAW X6 -->

<svg
   xmlns:dc="http://purl.org/dc/elements/1.1/"
   xmlns:cc="http://creativecommons.org/ns#"
   xmlns:rdf="http://www.w3.org/1999/02/22-rdf-syntax-ns#"
   xmlns:svg="http://www.w3.org/2000/svg"
   xmlns="http://www.w3.org/2000/svg"
   xmlns:sodipodi="http://sodipodi.sourceforge.net/DTD/sodipodi-0.dtd"
   xmlns:inkscape="http://www.inkscape.org/namespaces/inkscape"
   xml:space="preserve"
   width="960mm"
   height="610mm"
   version="1.1"
   style="shape-rendering:geometricPrecision; text-rendering:geometricPrecision; image-rendering:optimizeQuality; fill-rule:evenodd; clip-rule:evenodd"
   viewBox="0 0 96000 61000"
   id="svg2"
   inkscape:version="0.48.4 r9939"
   sodipodi:docname="F:\KMQ\Ipad to go v2.svg"><metadata
   id="metadata78"><rdf:RDF><cc:Work
       rdf:about=""><dc:format>image/svg+xml</dc:format><dc:type
         rdf:resource="http://purl.org/dc/dcmitype/StillImage" /><dc:title></dc:title></cc:Work></rdf:RDF></metadata><sodipodi:namedview
   pagecolor="#ffffff"
   bordercolor="#666666"
   borderopacity="1"
   objecttolerance="10"
   gridtolerance="10"
   guidetolerance="10"
   inkscape:pageopacity="0"
   inkscape:pageshadow="2"
   inkscape:window-width="1440"
   inkscape:window-height="850"
   id="namedview76"
   showgrid="false"
   inkscape:zoom="3.3430924"
   inkscape:cx="758.64966"
   inkscape:cy="1896.8229"
   inkscape:window-x="-8"
   inkscape:window-y="-8"
   inkscape:window-maximized="1"
   inkscape:current-layer="svg2" />
 <defs
   id="defs4">
  <style
   type="text/css"
   id="style6">
   
    .str1 {stroke:red;stroke-width:7.62}
    .str2 {stroke:lime;stroke-width:7.62}
    .str0 {stroke:red;stroke-width:7.62}
    .fil1 {fill:none}
    .fil0 {fill:none;fill-rule:nonzero}
   
  </style>
 
  
  
  
  
  
  
  
  
  
  
  
  
  
  
  
  
  
  
  
  
  
  
  
  
  
 
   
   
   
   
   
   
   
   
  </defs>
 <path
   style="fill:none;stroke:#ff0000;stroke-width:7.61999989"
   inkscape:connector-curvature="0"
   id="path10"
   d="M 60418.85,6788.554 C 55875.9,7032.3693 51332.95,7276.1847 46790,7520 L 36682,7519 23322.902,6886.2322 M 21883.854,6814.6649 13691.244,6321 7624.7041,5406.1172 358.80943,52598.687 C 1219.8325,52678.847 6099.7052,53629.27 8124,53822.868 l 4127,229.132 18627,847 4128,141 6756,-18 6756,-18 4163,-141 18556,-721.912 4122.51,-396.994 6075.233,-786.76 -5632.327,-47364.5008 -6058.564,695.2577 c -2630.129,141.1563 -5260.258,282.3125 -7890.387,423.4688"
   class="fil0 str0"
   sodipodi:nodetypes="ccccccccccccccccccccc" /><path
   style="fill:none;stroke:#ff0000;stroke-width:7.61999989"
   inkscape:connector-curvature="0"
   id="path12"
   d="m 8512.7777,51941 3640.2213,168 -4,225 c -11,588 -1329.111,516 -1864.111,490 -1630.9992,-92 -1793.1103,-92 -1782.1103,-653 l 10,-231 z"
   class="fil1 str1"
   sodipodi:nodetypes="ccccccc" /><path
   style="fill:none;stroke:#ff0000;stroke-width:7.61999989"
   inkscape:connector-curvature="0"
   id="path14"
   d="m 40097,52999 3034.333,0 c 88,0 159,71 159,159 l 0,310 c 0,88 -71,159 -159,159 l -3034.333,0 c -88,0 -159,-71 -159,-159 l 0,-310 c 0,-88 71,-159 159,-159 z"
   class="fil1 str0"
   sodipodi:nodetypes="sssssssss" /><path
   style="fill:none;stroke:#ff0000;stroke-width:7.61999989"
   inkscape:connector-curvature="0"
   id="path20"
   d="m 69175,37922 c 98,3112 196,6224 295,9336 131,4698 203,4702 -1846,4731 -3990,57 -7974,394 -11963,378 -1980,-8 -2029,62 -2141,-4605 -98,-3112 -197,-6224 -295,-9336"
   class="fil1 str0" /><path
   style="fill:none;stroke:#ff0000;stroke-width:7.61999989"
   inkscape:connector-curvature="0"
   id="path22"
   d="m 30379,38979 c -171,3109 -342,6218 -513,9327 -276,4692 -204,4702 -2248,4554 -3979,-288 -7977,-297 -11951,-658 -1972,-179 -2027,-114 -1735,-4773 l 513,-9327"
   class="fil1 str0" /><path
   style="fill:none;stroke:#ff0000;stroke-width:7.61999989"
   inkscape:connector-curvature="0"
   id="path24"
   d="m 31256.889,53012 3643.222,7 7,225 c 16,587 -1304.111,582 -1839.111,581 -452,6 -1858.111,-34 -1822.111,-589 l 11,-225 z"
   class="fil1 str1"
   sodipodi:nodetypes="ccccccc" /><path
   style="fill:none;stroke:#ff0000;stroke-width:7.61999989"
   inkscape:connector-curvature="0"
   id="path26"
   d="m 48635.889,53010 3643.222,-11 8,225 c 19,587 -1301.111,589 -1836.111,591 -452,8 -1858.111,-25 -1825.111,-579 l 9,-225 z"
   class="fil1 str1"
   sodipodi:nodetypes="ccccccc" /><path
   style="fill:none;stroke:#ff0000;stroke-width:7.61999989"
   inkscape:connector-curvature="0"
   id="path30"
   d="m 23933.592,7089.16 2527,116 -10,220 -2527,-115 10,-220 z m 0,0 z"
   class="fil1 str0" /><path
   style="fill:none;stroke:#ff0000;stroke-width:7.61999989"
   inkscape:connector-curvature="0"
   id="path32"
   d="m 57134.24,7178 2527,-115 10,220 -2527,115 -10,-220 z m 0,0 z"
   class="fil1 str0" /><path
   style="fill:none;stroke:#ff0000;stroke-width:7.61999989"
   inkscape:connector-curvature="0"
   id="path34"
   d="m 45828,44696 0,6997 c 0,521 -357,940 -800,940 l -6538,0 c -443,0 -800,-419 -800,-940 l 0,-6997"
   class="fil1 str0" /><path
   style="fill:none;stroke:#ff0000;stroke-width:7.61999989"
   inkscape:connector-curvature="0"
   id="path42"
   d="m 8536.6993,9620.7475 305.7962,-1976.1492 494.317,75.965 -305.7961,1976.1492 -494.3171,-75.965 z m 0,0 z"
   class="fil1 str0"
   inkscape:transform-center-x="118.7027"
   inkscape:transform-center-y="-1608.3479" /><path
   style="fill:none;stroke:#ff0000;stroke-width:7.61999989"
   inkscape:connector-curvature="0"
   id="path52"
   d="m 45397,13615 c 279,24 592,150 580,745 l 0,1500 c 84,919 -1057,750 -1057,750 l -6339,0 c 0,0 -1057,136 -1057,-750 l 0,-1500 c 14,-638 297,-746 571,-756"
   class="fil1 str0" /><polyline
   class="fil1 str2"
   points="8117,54008 8117,54033 10811,6313 12283,54058 "
   id="polyline62"
   style="fill:none;stroke:#00ff00;stroke-width:7.61999989"
   inkscape:transform-center-x="48.764344"
   inkscape:transform-center-y="-846.05118"
   transform="matrix(0.99817794,0.06033907,-0.06033907,0.99817794,3284.4265,-642.87072)" /><polyline
   class="fil1 str2"
   points="30842,54857 30842,54882 36679,7511 35008,55031 35008,55031 "
   id="polyline64"
   style="fill:none;stroke:#00ff00;stroke-width:7.61999989" /><polyline
   class="fil1 str2"
   points="48553,55006 46782,7511 52694,54857 52694,54857 "
   id="polyline66"
   style="fill:none;stroke:#00ff00;stroke-width:7.61999989" /><line
   class="fil1 str2"
   x1="38096"
   y1="13603"
   x2="45397"
   y2="13603"
   id="line74"
   style="fill:none;stroke:#00ff00;stroke-width:7.61999989" />
<path
   style="fill:none;stroke:#ff0000;stroke-width:7.61999989"
   inkscape:connector-curvature="0"
   id="path44"
   d="m 77738.577,51838.573 -342.229,-2173.169 494.204,-77.296 342.229,2173.168 -494.204,77.297 z m 0,0 z"
   class="fil1 str0"
   inkscape:transform-center-x="-229.80985"
   inkscape:transform-center-y="-126.98586" /><path
   style="fill:none;stroke:#ff0000;stroke-width:7.61999989"
   inkscape:connector-curvature="0"
   id="path46"
   d="m 79715.334,51528.387 -342.229,-2173.169 493.207,-77.235 342.229,2173.168 -493.207,77.236 z m 0,0 z"
   class="fil1 str0"
   inkscape:transform-center-x="-299.53454"
   inkscape:transform-center-y="-139.74238" /><path
   style="fill:none;stroke:#ff0000;stroke-width:7.61999989"
   inkscape:connector-curvature="0"
   id="path48"
   d="m 71230.554,10226.121 -340.232,-2173.2902 494.204,-77.2968 340.233,2173.29 -493.207,77.236 z m 0,0 z"
   class="fil1 str0"
   inkscape:transform-center-x="37.955831"
   inkscape:transform-center-y="-1595.1448" /><path
   style="fill:none;stroke:#ff0000;stroke-width:7.61999989"
   inkscape:connector-curvature="0"
   id="path50"
   d="m 73206.314,9915.9965 -340.233,-2173.2903 493.206,-77.2359 340.233,2173.2903 -493.206,77.2359 z m 0,0 z"
   class="fil1 str0"
   inkscape:transform-center-x="-31.73354"
   inkscape:transform-center-y="-1607.8983" /><polyline
   class="fil1 str2"
   points="75369,54058 75394,54083 72700,6313 71253,54233 71253,54233 "
   id="polyline60"
   style="fill:none;stroke:#00ff00;stroke-width:7.61999989"
   transform="matrix(0.99813697,-0.06101293,0.06101293,0.99813697,-3187.9957,4343.6558)"
   inkscape:transform-center-x="-25.225149"
   inkscape:transform-center-y="-848.15984" /><path
   class="fil1 str1"
   d="m 74975.725,51603.705 -3623.179,389.787 17.721,224.337 c 46.855,586.233 1358.107,433.946 1890.523,375.353 1622.347,-191.341 1784.156,-201.233 1738.949,-760.516 l -24.075,-229.959 z"
   id="path3088"
   inkscape:connector-curvature="0"
   style="fill:none;stroke:#ff0000;stroke-width:7.61999989"
   sodipodi:nodetypes="ccccccc"
   inkscape:transform-center-x="-66.759962"
   inkscape:transform-center-y="-73.112189" /><path
   style="fill:none;stroke:#ff0000;stroke-width:7.61999989"
   inkscape:connector-curvature="0"
   id="path42-3"
   d="m 2224.006,50841.558 305.7962,-1976.149 494.317,75.965 -305.7961,1976.149 -494.3171,-75.965 z m 0,0 z"
   class="fil1 str0"
   inkscape:transform-center-x="3350.0541"
   inkscape:transform-center-y="-45391.154" /><g
   id="g4666"><path
     inkscape:connector-curvature="0"
     style="fill:none;stroke:#ff0000;stroke-width:10;stroke-miterlimit:4;stroke-dasharray:none"
     d="m 61851.974,6709.106 c -137.417,85.2491 -93.587,510.2576 -301.532,530.086"
     id="path3924" /><path
     inkscape:connector-curvature="0"
     style="fill:none;stroke:#ff0000;stroke-width:10;stroke-miterlimit:4;stroke-dasharray:none"
     d="m 61550.442,7239.1921 c -207.949,19.8386 -210.219,-508.9296 -418.166,-489.0981"
     id="path3926" /><path
     inkscape:connector-curvature="0"
     style="fill:none;stroke:#ff0000;stroke-width:10;stroke-miterlimit:4;stroke-dasharray:none"
     d="m 61132.276,6750.0938 c -207.947,19.8381 -93.586,510.2661 -301.534,530.0939"
     id="path3928" /><path
     inkscape:connector-curvature="0"
     style="fill:none;stroke:#ff0000;stroke-width:10;stroke-miterlimit:4;stroke-dasharray:none"
     d="m 60830.742,7280.1876 c -207.946,19.8418 -58.314,-509.596 -418.164,-489.0977"
     id="path3930" /><path
     sodipodi:type="arc"
     style="fill:none;stroke:#ff0000;stroke-width:0.39232075;stroke-miterlimit:4;stroke-opacity:1;stroke-dasharray:none"
     id="path4170"
     sodipodi:cx="3081.4429"
     sodipodi:cy="823.29236"
     sodipodi:rx="12.557262"
     sodipodi:ry="12.557262"
     d="m 3094.0001,823.29236 a 12.557262,12.557262 0 1 1 -25.1145,0 12.557262,12.557262 0 1 1 25.1145,0 z"
     transform="matrix(0.08364868,25.489211,-25.489211,0.08364868,81985.229,-70854.999)" /></g><path
   inkscape:connector-curvature="0"
   style="fill:none;stroke:#ff0000;stroke-width:10;stroke-miterlimit:4;stroke-dasharray:none"
   d="m 21885.423,6810.4094 c 137.417,85.2491 93.587,510.2576 301.532,530.086"
   id="path4675" /><path
   inkscape:connector-curvature="0"
   style="fill:none;stroke:#ff0000;stroke-width:10;stroke-miterlimit:4;stroke-dasharray:none"
   d="m 22186.955,7340.4955 c 207.949,19.8386 210.219,-508.9296 418.166,-489.0981"
   id="path4677" /><path
   inkscape:connector-curvature="0"
   style="fill:none;stroke:#ff0000;stroke-width:10;stroke-miterlimit:4;stroke-dasharray:none"
   d="m 22605.121,6851.3972 c 207.947,19.8381 93.586,510.2661 301.534,530.0939"
   id="path4679" /><path
   inkscape:connector-curvature="0"
   style="fill:none;stroke:#ff0000;stroke-width:10;stroke-miterlimit:4;stroke-dasharray:none"
   d="m 22906.655,7381.491 c 207.946,19.8418 58.314,-509.596 418.164,-489.0977"
   id="path4681" /><path
   sodipodi:type="arc"
   style="fill:none;stroke:#ff0000;stroke-width:0.39232075;stroke-miterlimit:4;stroke-opacity:1;stroke-dasharray:none"
   id="path4683"
   sodipodi:cx="3081.4429"
   sodipodi:cy="823.29236"
   sodipodi:rx="12.557262"
   sodipodi:ry="12.557262"
   d="m 3094.0001,823.29236 a 12.557262,12.557262 0 1 1 -25.1145,0 12.557262,12.557262 0 1 1 25.1145,0 z"
   transform="matrix(-0.08364868,25.489211,25.489211,0.08364868,1752.168,-70753.696)" /></svg>